<?xml version="1.0" encoding="UTF-8" standalone="no"?>
<!-- Created with Inkscape (http://www.inkscape.org/) -->

<svg
   version="1.1"
   id="svg2535"
   width="911.59418"
   height="312.34149"
   viewBox="0 0 911.59418 312.34149"
   xmlns="http://www.w3.org/2000/svg"
   xmlns:svg="http://www.w3.org/2000/svg">
  <defs
     id="defs2539">
    <clipPath
       clipPathUnits="userSpaceOnUse"
       id="clipPath2555">
      <path
         d="M 0,0 H 684 V 235 H 0 Z"
         id="path2553" />
    </clipPath>
    <clipPath
       clipPathUnits="userSpaceOnUse"
       id="clipPath2569">
      <path
         d="M 0,0 H 684 V 235 H 0 Z"
         id="path2567" />
    </clipPath>
    <clipPath
       clipPathUnits="userSpaceOnUse"
       id="clipPath2583">
      <path
         d="M 0,0 H 684 V 235 H 0 Z"
         id="path2581" />
    </clipPath>
    <clipPath
       clipPathUnits="userSpaceOnUse"
       id="clipPath2597">
      <path
         d="M 0,0 H 684 V 235 H 0 Z"
         id="path2595" />
    </clipPath>
    <clipPath
       clipPathUnits="userSpaceOnUse"
       id="clipPath2611">
      <path
         d="M 0,0 H 684 V 235 H 0 Z"
         id="path2609" />
    </clipPath>
    <clipPath
       clipPathUnits="userSpaceOnUse"
       id="clipPath2625">
      <path
         d="M 0,0 H 684 V 235 H 0 Z"
         id="path2623" />
    </clipPath>
    <clipPath
       clipPathUnits="userSpaceOnUse"
       id="clipPath2639">
      <path
         d="M 0,0 H 684 V 235 H 0 Z"
         id="path2637" />
    </clipPath>
    <clipPath
       clipPathUnits="userSpaceOnUse"
       id="clipPath2653">
      <path
         d="M 0,0 H 684 V 235 H 0 Z"
         id="path2651" />
    </clipPath>
  </defs>
  <g
     id="g2543"
     transform="matrix(1.3333333,0,0,1.3333333,0,6.4752037e-6)">
    <g
       id="g2545">
      <g
         id="g2547">
        <g
           id="g2549">
          <g
             id="g2551"
             clip-path="url(#clipPath2555)">
            <g
               id="g2557">
              <path
                 d="m 508.801,33.914 c -2.008,2.363 -5.133,3.004 -8.067,3.234 -3.484,0.286 -6.914,0.782 -10.308,1.637 -5.332,1.332 -10.469,3.41 -15.231,6.149 -1.476,0.851 -11.465,6.628 -8.265,8.921 2.593,1.848 8.832,0.817 11.8,0.497 4.622,-0.516 9.332,-1.637 13.454,-3.805 3.058,-1.582 5.777,-4.102 9.171,-4.957 3.36,-0.836 3.11,1.972 2.133,4.23 -1.332,3.094 -3.519,5.422 -5.898,7.715 -8.285,8.031 -19.606,11.211 -28.738,11.606 h -0.02 c -6.574,-1.016 -13.078,-2.223 -19.48,-3.629 -4.602,-0.992 -9.309,-2.043 -15.602,-3.871 -12.742,-3.7 -26.109,-8.957 -27.457,-9.493 -6.949,-2.753 -8.711,-3.714 -12.941,-4.55 -0.942,-0.176 -1.848,-0.336 -2.719,-0.446 5.121,-0.941 10.699,-1.968 15.515,-3.961 6.739,-2.773 13.473,-5.351 19.711,-9.101 6.274,-3.785 12.172,-8.176 18.09,-12.473 7.84,-5.687 16.371,-10.664 25.274,-14.469 7.961,-3.41 13.453,-5.597 19.265,-6.503 5.012,-0.801 10.735,-1.192 15.516,0.886 5.402,2.348 7.43,8.551 8.035,13.969 0.656,5.707 0.656,13.812 -3.238,18.414"
                 style="fill:#a93da5;fill-opacity:1;fill-rule:nonzero;stroke:none"
                 id="path2559" />
            </g>
          </g>
        </g>
      </g>
      <g
         id="g2561">
        <g
           id="g2563">
          <g
             id="g2565"
             clip-path="url(#clipPath2569)">
            <g
               id="g2571">
              <path
                 d="m 539.051,162.035 c -5.278,2.949 -11.11,5.082 -16.758,7.235 -9.152,3.484 -18.43,6.644 -27.746,9.683 -1.102,0.356 -2.203,0.711 -3.285,1.102 -17.348,6.027 -33.821,14.769 -48.45,25.879 -5.472,4.14 -10.273,9.242 -16.082,12.867 -8.55,5.312 -18.589,7.82 -28.613,7.785 -63.984,-0.215 -98.23,-41.59 -98.23,-41.59 12.761,-4.957 25.539,-9.898 38.316,-14.855 21.418,-8.301 42.387,-16.993 64.606,-22.696 25.554,-6.558 51.593,-11.945 77.843,-14.929 6.77,12.156 22.907,18.535 35.578,22.109 4.391,1.227 8.872,2.148 13.383,2.754 2.614,0.355 5.262,0.621 7.91,0.676 1.457,0.035 3.004,-0.25 4.407,0.371 2.789,1.23 -1.848,3.004 -2.879,3.609"
                 style="fill:#a93da5;fill-opacity:1;fill-rule:nonzero;stroke:none"
                 id="path2573" />
            </g>
          </g>
        </g>
      </g>
      <g
         id="g2575">
        <g
           id="g2577">
          <g
             id="g2579"
             clip-path="url(#clipPath2583)">
            <g
               id="g2585">
              <path
                 d="m 299.051,224.629 c 0.039,2.648 -0.461,5.512 -1.863,7.785 -2.293,3.731 -7.11,4.336 -11.145,3.715 -3.289,-0.516 -6.379,-1.867 -9.313,-3.449 -12.546,-6.7 -23.406,-17.7 -29.093,-30.832 l 10.523,-2.293 c 1.758,2.324 4.781,5.097 7.766,5.418 4.316,0.465 8.707,0.054 13.043,0.695 9.207,1.332 19.961,8.672 20.082,18.961"
                 style="fill:#a93da5;fill-opacity:1;fill-rule:nonzero;stroke:none"
                 id="path2587" />
            </g>
          </g>
        </g>
      </g>
      <g
         id="g2589">
        <g
           id="g2591">
          <g
             id="g2593"
             clip-path="url(#clipPath2597)">
            <g
               id="g2599">
              <path
                 d="m 269.516,120.066 c -0.551,1.243 -1.672,4.442 -5.883,10.895 -6.969,10.699 -15.375,22.16 -25.559,30.09 -7.855,6.113 -17.734,9.683 -27.707,9.808 -0.441,0.016 -1.207,0.016 -2.183,-0.015 -10.524,-0.41 -20.618,-5.156 -29.594,-10.399 -3.039,-1.777 -5.934,-3.769 -8.867,-5.707 -1.953,-1.297 -4.852,-3.164 -4.035,-5.953 0.5,-1.668 2.027,-3.394 2.792,-4.992 3.836,-7.926 3.641,-17.398 -2.168,-24.297 -0.945,-1.137 -2.097,-2.418 -1.832,-3.875 0.426,-2.414 5.137,-3.73 7.18,-4.512 3.024,-1.156 6.113,-2.082 9.223,-2.953 5.387,-1.492 10.824,-2.734 16.281,-3.906 0,0 17.238,-3.715 41,-5.102 7.324,0 14.574,0.051 21.664,2.149 4.231,1.246 9.348,3.004 11.305,7.394 1.687,3.805 -0.055,7.856 -1.617,11.375 m -183.289,4.461 c -15.922,0 -28.844,-12.902 -28.844,-28.843 0,-15.926 12.922,-28.829 28.844,-28.829 15.941,0 28.847,12.903 28.847,28.829 0,15.941 -12.906,28.843 -28.847,28.843 M 581.152,99.414 c -0.941,-11.16 -7.906,-19.816 -15.441,-24.082 -6.488,-3.68 -12.316,-3.445 -21.473,-3.164 -0.601,0 -1.207,0.02 -1.828,0.035 0,0 -21.113,0.731 -46.848,-1.207 -9.152,-0.691 -18.359,-1.742 -27.457,-3.164 h -0.019 c -6.574,-1.012 -13.082,-2.223 -19.481,-3.625 -4.601,-0.996 -9.312,-2.043 -15.601,-3.875 -12.742,-3.695 -26.109,-8.957 -27.461,-9.488 -6.945,-2.758 -8.707,-3.715 -12.938,-4.551 -0.941,-0.18 -1.847,-0.34 -2.718,-0.445 -4.957,-0.676 -8.977,-0.301 -13.614,0 -8.867,0.57 -17.773,0.355 -26.66,0.625 -7.711,0.23 -14.59,0.086 -28.343,0.175 -37.145,0.215 -74.415,-1.367 -111.629,-1.351 -16.938,0.019 -34.071,-0.301 -50.883,1.457 -10.203,1.066 -20.387,2.152 -30.586,3.289 -5.352,0.605 -10.719,1.227 -16.067,1.867 -7.41,0.906 -14.839,1.813 -22.269,2.754 -12.297,1.547 -24.598,3.199 -36.859,5.012 -11.961,1.777 -23.832,3.57 -35.618,6.308 -6.289,1.457 -12.777,4.461 -15.797,10.164 -4.195,7.946 0.887,17.649 5.559,24.227 8.266,11.656 20.086,19.637 32.027,27.051 30.926,19.191 61.512,39.008 93.645,56.156 9.473,5.066 19.832,8.18 30.195,11.199 27.707,8.071 58.028,11.535 86.676,6.965 2.594,-0.406 5.172,-0.887 7.746,-1.437 5.672,-1.192 11.285,-2.684 16.797,-4.481 7.785,-2.539 14.93,-6.183 22.555,-9.152 0.797,-0.301 1.582,-0.621 2.379,-0.922 12.761,-4.961 25.539,-9.899 38.316,-14.859 21.418,-8.301 42.391,-16.989 64.605,-22.696 25.555,-6.558 51.594,-11.941 77.844,-14.929 21.344,-2.434 42.848,-3.25 64.332,-1.829 0.039,0 0.055,0.016 0.09,0.016 0.676,0.035 1.352,0.07 2.027,0.125 4.321,0.305 16.438,0.535 25.309,-7.32 6.664,-5.903 10.309,-15.43 9.488,-24.848"
                 style="fill:#642b8f;fill-opacity:1;fill-rule:nonzero;stroke:none"
                 id="path2601" />
            </g>
          </g>
        </g>
      </g>
      <g
         id="g2603">
        <g
           id="g2605">
          <g
             id="g2607"
             clip-path="url(#clipPath2611)">
            <g
               id="g2613">
              <path
                 d="m 673.473,175.16 c -5.133,3.395 -10.45,3.555 -12.938,3.59 -11.41,0.18 -23.707,-6.523 -41.32,-15.73 -11.926,-6.235 -21.965,-11.356 -34.141,-17.008 -6.183,-2.879 -10.324,-4.692 -15.14,-6.539 -10.434,-4.035 -19.411,-6.504 -25.754,-8.016 0.675,0.035 1.351,0.07 2.027,0.125 4.316,0.301 16.438,0.535 25.309,-7.32 6.664,-5.903 10.304,-15.43 9.488,-24.848 -0.942,-11.16 -7.906,-19.816 -15.445,-24.082 -6.485,-3.68 -12.313,-3.445 -21.469,-3.164 v -0.016 c 14.238,-3.304 27.226,-8.922 40.648,-14.629 12.047,-5.117 23.938,-10.574 35.899,-15.871 11.105,-4.902 22.73,-10.804 34.636,-13.418 5.317,-1.172 10.985,-1.277 16.067,0.625 14.594,5.438 10.453,23.051 9.598,34.903 -1.528,21.613 -2.133,44.324 0.339,65.793 1.633,14.289 6.914,35.902 -7.804,45.605"
                 style="fill:#a93da5;fill-opacity:1;fill-rule:nonzero;stroke:none"
                 id="path2615" />
            </g>
          </g>
        </g>
      </g>
      <g
         id="g2617">
        <g
           id="g2619">
          <g
             id="g2621"
             clip-path="url(#clipPath2625)">
            <g
               id="g2627">
              <path
                 d="m 86.973,109.508 c -7.621,0 -13.809,-6.184 -13.809,-13.824 0,-7.625 6.188,-13.809 13.809,-13.809 7.644,0 13.812,6.184 13.812,13.809 0,7.64 -6.168,13.824 -13.812,13.824 m 0,-42.653 c -15.922,0 -28.844,12.903 -28.844,28.829 0,15.941 12.922,28.843 28.844,28.843 15.945,0 28.847,-12.902 28.847,-28.843 0,-15.926 -12.902,-28.829 -28.847,-28.829"
                 style="fill:#ffffff;fill-opacity:1;fill-rule:nonzero;stroke:none"
                 id="path2629" />
            </g>
          </g>
        </g>
      </g>
      <g
         id="g2631">
        <g
           id="g2633">
          <g
             id="g2635"
             clip-path="url(#clipPath2639)">
            <g
               id="g2641">
              <path
                 d="m 100.785,95.684 c 0,7.64 -6.168,13.824 -13.808,13.824 -7.625,0 -13.813,-6.184 -13.813,-13.824 0,-7.625 6.188,-13.809 13.813,-13.809 7.64,0 13.808,6.184 13.808,13.809"
                 style="fill:#642b8f;fill-opacity:1;fill-rule:nonzero;stroke:none"
                 id="path2643" />
            </g>
          </g>
        </g>
      </g>
      <g
         id="g2645">
        <g
           id="g2647">
          <g
             id="g2649"
             clip-path="url(#clipPath2653)">
            <g
               id="g2655">
              <path
                 d="m 269.367,120.066 c -0.551,1.243 -1.672,4.442 -5.883,10.895 -6.968,10.699 -15.375,22.16 -25.558,30.09 -7.856,6.113 -17.735,9.683 -27.707,9.808 -0.446,0.016 -1.207,0.016 -2.188,-0.015 -10.519,-0.41 -20.613,-5.156 -29.59,-10.399 -3.039,-1.777 -5.937,-3.769 -8.867,-5.707 -1.957,-1.297 -4.851,-3.164 -4.035,-5.953 0.496,-1.668 2.027,-3.394 2.789,-4.992 3.84,-7.926 3.645,-17.398 -2.168,-24.297 -0.941,-1.137 -2.094,-2.418 -1.828,-3.875 0.426,-2.414 5.133,-3.73 7.18,-4.512 3.019,-1.156 6.113,-2.082 9.222,-2.953 5.387,-1.492 10.825,-2.734 16.282,-3.906 0,0 17.238,-3.715 41,-5.102 7.32,0 14.574,0.051 21.664,2.149 4.23,1.246 9.347,3.004 11.304,7.394 1.688,3.805 -0.054,7.856 -1.617,11.375"
                 style="fill:#a93da5;fill-opacity:1;fill-rule:nonzero;stroke:none"
                 id="path2657" />
            </g>
          </g>
        </g>
      </g>
    </g>
  </g>
</svg>
