<?xml version="1.0" encoding="UTF-8" standalone="no"?>
<!-- Created with Inkscape (http://www.inkscape.org/) -->

<svg
   version="1.1"
   id="svg2003"
   width="911.59418"
   height="312.34146"
   viewBox="0 0 911.59418 312.34146"
   xmlns="http://www.w3.org/2000/svg"
   xmlns:svg="http://www.w3.org/2000/svg">
  <defs
     id="defs2007">
    <clipPath
       clipPathUnits="userSpaceOnUse"
       id="clipPath2023">
      <path
         d="M 0,0 H 684 V 235 H 0 Z"
         id="path2021" />
    </clipPath>
    <clipPath
       clipPathUnits="userSpaceOnUse"
       id="clipPath2037">
      <path
         d="M 0,0 H 684 V 235 H 0 Z"
         id="path2035" />
    </clipPath>
    <clipPath
       clipPathUnits="userSpaceOnUse"
       id="clipPath2051">
      <path
         d="M 0,0 H 684 V 235 H 0 Z"
         id="path2049" />
    </clipPath>
    <clipPath
       clipPathUnits="userSpaceOnUse"
       id="clipPath2065">
      <path
         d="M 0,0 H 684 V 235 H 0 Z"
         id="path2063" />
    </clipPath>
    <clipPath
       clipPathUnits="userSpaceOnUse"
       id="clipPath2079">
      <path
         d="M 0,0 H 684 V 235 H 0 Z"
         id="path2077" />
    </clipPath>
    <clipPath
       clipPathUnits="userSpaceOnUse"
       id="clipPath2093">
      <path
         d="M 0,0 H 684 V 235 H 0 Z"
         id="path2091" />
    </clipPath>
    <clipPath
       clipPathUnits="userSpaceOnUse"
       id="clipPath2107">
      <path
         d="M 0,0 H 684 V 235 H 0 Z"
         id="path2105" />
    </clipPath>
    <clipPath
       clipPathUnits="userSpaceOnUse"
       id="clipPath2121">
      <path
         d="M 0,0 H 684 V 235 H 0 Z"
         id="path2119" />
    </clipPath>
  </defs>
  <g
     id="g2011"
     transform="matrix(1.3333333,0,0,1.3333333,0,4.475203e-6)">
    <g
       id="g2013">
      <g
         id="g2015">
        <g
           id="g2017">
          <g
             id="g2019"
             clip-path="url(#clipPath2023)">
            <g
               id="g2025">
              <path
                 d="m 507.621,33.914 c -2.008,2.363 -5.137,3.004 -8.07,3.234 -3.485,0.286 -6.914,0.782 -10.309,1.637 -5.332,1.332 -10.469,3.41 -15.23,6.149 -1.477,0.851 -11.465,6.628 -8.266,8.921 2.598,1.848 8.836,0.817 11.801,0.497 4.621,-0.516 9.332,-1.637 13.457,-3.805 3.055,-1.582 5.773,-4.102 9.168,-4.957 3.359,-0.836 3.113,1.972 2.133,4.23 -1.332,3.094 -3.52,5.422 -5.899,7.715 -8.281,8.031 -19.605,11.211 -28.738,11.606 h -0.02 c -6.574,-1.016 -13.078,-2.223 -19.476,-3.629 -4.606,-0.992 -9.313,-2.043 -15.606,-3.871 -12.742,-3.7 -26.105,-8.957 -27.457,-9.493 -6.949,-2.753 -8.711,-3.714 -12.937,-4.55 -0.945,-0.176 -1.852,-0.336 -2.723,-0.446 5.121,-0.941 10.699,-1.968 15.516,-3.961 6.738,-2.773 13.473,-5.351 19.711,-9.101 6.273,-3.785 12.172,-8.176 18.094,-12.473 7.835,-5.687 16.367,-10.664 25.269,-14.469 7.965,-3.41 13.457,-5.597 19.266,-6.503 5.011,-0.801 10.734,-1.192 15.515,0.886 5.403,2.348 7.43,8.551 8.035,13.969 0.657,5.707 0.657,13.812 -3.234,18.414"
                 style="fill:#f25396;fill-opacity:1;fill-rule:nonzero;stroke:none"
                 id="path2027" />
            </g>
          </g>
        </g>
      </g>
      <g
         id="g2029">
        <g
           id="g2031">
          <g
             id="g2033"
             clip-path="url(#clipPath2037)">
            <g
               id="g2039">
              <path
                 d="m 537.867,162.035 c -5.277,2.949 -11.105,5.082 -16.758,7.235 -9.152,3.484 -18.429,6.644 -27.742,9.683 -1.101,0.356 -2.207,0.711 -3.289,1.102 -17.348,6.027 -33.82,14.769 -48.449,25.879 -5.473,4.14 -10.27,9.242 -16.082,12.867 -8.551,5.312 -18.59,7.82 -28.613,7.785 -63.981,-0.215 -98.231,-41.59 -98.231,-41.59 12.762,-4.957 25.539,-9.898 38.32,-14.855 21.415,-8.301 42.387,-16.993 64.602,-22.696 25.555,-6.558 51.594,-11.945 77.844,-14.929 6.769,12.156 22.906,18.535 35.578,22.109 4.391,1.227 8.871,2.148 13.383,2.754 2.613,0.355 5.261,0.621 7.91,0.676 1.457,0.035 3.004,-0.25 4.406,0.371 2.789,1.226 -1.848,3.004 -2.879,3.609"
                 style="fill:#f25396;fill-opacity:1;fill-rule:nonzero;stroke:none"
                 id="path2041" />
            </g>
          </g>
        </g>
      </g>
      <g
         id="g2043">
        <g
           id="g2045">
          <g
             id="g2047"
             clip-path="url(#clipPath2051)">
            <g
               id="g2053">
              <path
                 d="m 299.051,225.812 c 0.039,2.649 -0.461,5.508 -1.863,7.786 -2.293,3.73 -7.11,4.336 -11.145,3.714 -3.289,-0.515 -6.379,-1.867 -9.313,-3.449 -12.546,-6.699 -23.406,-17.699 -29.093,-30.836 l 10.523,-2.293 c 1.758,2.328 4.781,5.102 7.766,5.422 4.316,0.461 8.707,0.055 13.043,0.692 9.207,1.336 19.961,8.675 20.082,18.964"
                 style="fill:#f25396;fill-opacity:1;fill-rule:nonzero;stroke:none"
                 id="path2055" />
            </g>
          </g>
        </g>
      </g>
      <g
         id="g2057">
        <g
           id="g2059">
          <g
             id="g2061"
             clip-path="url(#clipPath2065)">
            <g
               id="g2067">
              <path
                 d="m 269.516,121.25 c -0.551,1.242 -1.672,4.441 -5.883,10.891 -6.969,10.703 -15.375,22.164 -25.559,30.089 -7.855,6.114 -17.734,9.688 -27.707,9.813 -0.441,0.016 -1.207,0.016 -2.183,-0.02 -10.524,-0.406 -20.618,-5.152 -29.594,-10.394 -3.039,-1.777 -5.934,-3.77 -8.867,-5.707 -1.953,-1.297 -4.852,-3.164 -4.035,-5.953 0.5,-1.672 2.027,-3.395 2.792,-4.996 3.836,-7.926 3.641,-17.399 -2.168,-24.293 -0.945,-1.137 -2.097,-2.418 -1.832,-3.875 0.426,-2.418 5.137,-3.731 7.18,-4.512 3.024,-1.156 6.113,-2.082 9.223,-2.953 5.387,-1.492 10.824,-2.735 16.281,-3.91 0,0 17.238,-3.715 41,-5.098 7.324,0 14.574,0.051 21.664,2.148 4.231,1.243 9.348,3.004 11.305,7.395 1.687,3.801 -0.055,7.855 -1.617,11.375 m -183.289,4.461 c -15.922,0 -28.844,-12.906 -28.844,-28.848 0,-15.922 12.922,-28.824 28.844,-28.824 15.941,0 28.847,12.902 28.847,28.824 0,15.942 -12.906,28.848 -28.847,28.848 m 494.925,-25.113 c -0.941,-11.16 -7.906,-19.817 -15.441,-24.082 -6.488,-3.68 -12.316,-3.45 -21.473,-3.164 -0.601,0 -1.207,0.019 -1.828,0.035 0,0 -21.113,0.73 -46.848,-1.207 -9.152,-0.696 -18.359,-1.742 -27.457,-3.164 h -0.019 c -6.574,-1.012 -13.082,-2.223 -19.481,-3.625 -4.601,-0.996 -9.312,-2.043 -15.601,-3.875 -12.742,-3.696 -26.109,-8.957 -27.461,-9.493 -6.945,-2.753 -8.707,-3.714 -12.938,-4.546 -0.941,-0.18 -1.847,-0.34 -2.718,-0.446 -4.957,-0.676 -8.977,-0.301 -13.614,0 -8.867,0.567 -17.773,0.356 -26.66,0.621 -7.711,0.231 -14.59,0.09 -28.343,0.18 -37.145,0.211 -74.415,-1.371 -111.629,-1.352 -16.938,0.016 -34.071,-0.304 -50.883,1.458 -10.203,1.066 -20.387,2.148 -30.586,3.289 -5.352,0.601 -10.719,1.226 -16.067,1.863 -7.41,0.906 -14.839,1.816 -22.269,2.758 -12.297,1.543 -24.598,3.199 -36.859,5.011 -11.961,1.778 -23.832,3.571 -35.618,6.309 -6.289,1.457 -12.777,4.461 -15.797,10.164 -4.195,7.945 0.887,17.648 5.559,24.223 8.266,11.66 20.086,19.64 32.027,27.05 30.926,19.196 61.512,39.012 93.645,56.161 9.473,5.066 19.832,8.175 30.195,11.199 27.707,8.066 58.028,11.531 86.676,6.965 2.594,-0.407 5.172,-0.887 7.746,-1.438 5.672,-1.191 11.285,-2.683 16.797,-4.48 7.785,-2.543 14.93,-6.184 22.555,-9.153 0.797,-0.3 1.582,-0.621 2.379,-0.925 12.761,-4.957 25.539,-9.899 38.316,-14.856 21.418,-8.301 42.391,-16.992 64.605,-22.695 25.555,-6.559 51.594,-11.942 77.844,-14.93 21.344,-2.433 42.848,-3.25 64.332,-1.832 0.039,0 0.055,0.02 0.09,0.02 0.676,0.035 1.352,0.07 2.027,0.125 4.321,0.3 16.438,0.531 25.309,-7.325 6.664,-5.898 10.309,-15.425 9.488,-24.843"
                 style="fill:#b71d24;fill-opacity:1;fill-rule:nonzero;stroke:none"
                 id="path2069" />
            </g>
          </g>
        </g>
      </g>
      <g
         id="g2071">
        <g
           id="g2073">
          <g
             id="g2075"
             clip-path="url(#clipPath2079)">
            <g
               id="g2081">
              <path
                 d="m 672.293,175.16 c -5.137,3.395 -10.453,3.555 -12.941,3.59 -11.407,0.18 -23.707,-6.523 -41.321,-15.73 -11.922,-6.239 -21.965,-11.356 -34.14,-17.008 -6.184,-2.879 -10.325,-4.692 -15.141,-6.539 -10.434,-4.035 -19.406,-6.504 -25.754,-8.016 0.676,0.035 1.352,0.07 2.027,0.125 4.321,0.301 16.438,0.531 25.309,-7.32 6.664,-5.903 10.309,-15.43 9.488,-24.848 -0.941,-11.16 -7.906,-19.816 -15.441,-24.082 -6.488,-3.68 -12.317,-3.445 -21.469,-3.164 v -0.016 c 14.235,-3.304 27.227,-8.922 40.645,-14.629 12.047,-5.117 23.937,-10.574 35.898,-15.871 11.109,-4.902 22.731,-10.804 34.641,-13.418 5.312,-1.172 10.98,-1.277 16.066,0.625 14.59,5.438 10.449,23.051 9.594,34.903 -1.527,21.613 -2.129,44.324 0.34,65.793 1.633,14.289 6.914,35.902 -7.801,45.605"
                 style="fill:#f25396;fill-opacity:1;fill-rule:nonzero;stroke:none"
                 id="path2083" />
            </g>
          </g>
        </g>
      </g>
      <g
         id="g2085">
        <g
           id="g2087">
          <g
             id="g2089"
             clip-path="url(#clipPath2093)">
            <g
               id="g2095">
              <path
                 d="m 86.973,110.691 c -7.621,0 -13.809,-6.183 -13.809,-13.828 0,-7.621 6.188,-13.808 13.809,-13.808 7.644,0 13.812,6.187 13.812,13.808 0,7.645 -6.168,13.828 -13.812,13.828 m 0,-42.652 c -15.922,0 -28.844,12.902 -28.844,28.824 0,15.942 12.922,28.848 28.844,28.848 15.945,0 28.847,-12.906 28.847,-28.848 0,-15.922 -12.902,-28.824 -28.847,-28.824"
                 style="fill:#ffffff;fill-opacity:1;fill-rule:nonzero;stroke:none"
                 id="path2097" />
            </g>
          </g>
        </g>
      </g>
      <g
         id="g2099">
        <g
           id="g2101">
          <g
             id="g2103"
             clip-path="url(#clipPath2107)">
            <g
               id="g2109">
              <path
                 d="m 100.785,96.863 c 0,7.645 -6.168,13.828 -13.808,13.828 -7.625,0 -13.813,-6.183 -13.813,-13.828 0,-7.621 6.188,-13.808 13.813,-13.808 7.64,0 13.808,6.187 13.808,13.808"
                 style="fill:#b71d24;fill-opacity:1;fill-rule:nonzero;stroke:none"
                 id="path2111" />
            </g>
          </g>
        </g>
      </g>
      <g
         id="g2113">
        <g
           id="g2115">
          <g
             id="g2117"
             clip-path="url(#clipPath2121)">
            <g
               id="g2123">
              <path
                 d="m 269.367,121.25 c -0.551,1.242 -1.672,4.441 -5.883,10.891 -6.968,10.703 -15.375,22.164 -25.558,30.089 -7.856,6.114 -17.735,9.688 -27.707,9.813 -0.446,0.016 -1.207,0.016 -2.188,-0.02 -10.519,-0.406 -20.613,-5.152 -29.59,-10.394 -3.039,-1.777 -5.937,-3.77 -8.867,-5.707 -1.957,-1.297 -4.851,-3.164 -4.035,-5.953 0.496,-1.672 2.027,-3.395 2.789,-4.996 3.84,-7.926 3.645,-17.399 -2.168,-24.293 -0.941,-1.137 -2.094,-2.418 -1.828,-3.875 0.426,-2.418 5.133,-3.731 7.18,-4.512 3.019,-1.156 6.113,-2.082 9.222,-2.953 5.387,-1.492 10.825,-2.735 16.282,-3.91 0,0 17.238,-3.715 41,-5.098 7.32,0 14.574,0.051 21.664,2.148 4.23,1.243 9.347,3.004 11.304,7.395 1.688,3.801 -0.054,7.855 -1.617,11.375"
                 style="fill:#f25396;fill-opacity:1;fill-rule:nonzero;stroke:none"
                 id="path2125" />
            </g>
          </g>
        </g>
      </g>
    </g>
  </g>
</svg>
