<?xml version="1.0" encoding="UTF-8" standalone="no"?>
<!-- Created with Inkscape (http://www.inkscape.org/) -->

<svg
   version="1.1"
   id="svg1063"
   width="911.39294"
   height="315.12119"
   viewBox="0 0 911.39294 315.12119"
   xmlns="http://www.w3.org/2000/svg"
   xmlns:svg="http://www.w3.org/2000/svg">
  <defs
     id="defs1067">
    <clipPath
       clipPathUnits="userSpaceOnUse"
       id="clipPath1085">
      <path
         d="M 0,0 H 684 V 237 H 0 Z"
         id="path1083" />
    </clipPath>
    <clipPath
       clipPathUnits="userSpaceOnUse"
       id="clipPath1101">
      <path
         d="M 0,0 H 684 V 237 H 0 Z"
         id="path1099" />
    </clipPath>
    <clipPath
       clipPathUnits="userSpaceOnUse"
       id="clipPath1115">
      <path
         d="M 0,0 H 684 V 237 H 0 Z"
         id="path1113" />
    </clipPath>
    <clipPath
       clipPathUnits="userSpaceOnUse"
       id="clipPath1129">
      <path
         d="M 0,0 H 684 V 237 H 0 Z"
         id="path1127" />
    </clipPath>
    <clipPath
       clipPathUnits="userSpaceOnUse"
       id="clipPath1143">
      <path
         d="M 0,0 H 684 V 237 H 0 Z"
         id="path1141" />
    </clipPath>
    <clipPath
       clipPathUnits="userSpaceOnUse"
       id="clipPath1157">
      <path
         d="M 0,0 H 684 V 237 H 0 Z"
         id="path1155" />
    </clipPath>
    <clipPath
       clipPathUnits="userSpaceOnUse"
       id="clipPath1171">
      <path
         d="M 0,0 H 684 V 237 H 0 Z"
         id="path1169" />
    </clipPath>
    <clipPath
       clipPathUnits="userSpaceOnUse"
       id="clipPath1185">
      <path
         d="M 0,0 H 684 V 237 H 0 Z"
         id="path1183" />
    </clipPath>
    <clipPath
       clipPathUnits="userSpaceOnUse"
       id="clipPath1199">
      <path
         d="M 0,0 H 684 V 237 H 0 Z"
         id="path1197" />
    </clipPath>
  </defs>
  <g
     id="g1071"
     transform="matrix(1.3333333,0,0,1.3333333,0,1.187803e-5)">
    <g
       id="g1073">
      <path
         d="m 389.887,35.887 c 0.375,0.105 0.801,0.175 1.261,0.175 -0.425,-0.07 -0.851,-0.124 -1.261,-0.175"
         style="fill:#6bc745;fill-opacity:1;fill-rule:nonzero;stroke:none"
         id="path1075" />
      <g
         id="g1077">
        <g
           id="g1079">
          <g
             id="g1081"
             clip-path="url(#clipPath1085)">
            <g
               id="g1087">
              <g
                 id="g1089"
                 transform="scale(1,-1)">
                <path
                   d="m 309.629,-194.734 c -2.918,-1.442 -6.399,-3.094 -10.379,-4.782 l 10.359,4.797 c 0,0 0,-0.015 0.02,-0.015 z"
                   style="fill:none;stroke:#6bc745;stroke-width:1;stroke-linecap:butt;stroke-linejoin:miter;stroke-miterlimit:10;stroke-dasharray:none;stroke-opacity:1"
                   id="path1091" />
              </g>
            </g>
          </g>
        </g>
      </g>
      <g
         id="g1093">
        <g
           id="g1095">
          <g
             id="g1097"
             clip-path="url(#clipPath1101)">
            <g
               id="g1103">
              <path
                 d="m 86.227,99.547 c -7.622,0 -13.809,-6.188 -13.809,-13.809 0,-7.625 6.187,-13.808 13.809,-13.808 7.644,0 13.828,6.183 13.828,13.808 0,7.621 -6.184,13.809 -13.828,13.809 m 0,-42.656 c -15.922,0 -28.825,12.906 -28.825,28.847 0,15.922 12.903,28.844 28.825,28.844 15.945,0 28.847,-12.922 28.847,-28.844 0,-15.941 -12.902,-28.847 -28.847,-28.847"
                 style="fill:#ffffff;fill-opacity:1;fill-rule:nonzero;stroke:none"
                 id="path1105" />
            </g>
          </g>
        </g>
      </g>
      <g
         id="g1107">
        <g
           id="g1109">
          <g
             id="g1111"
             clip-path="url(#clipPath1115)">
            <g
               id="g1117">
              <path
                 d="m 100.055,85.738 c 0,7.621 -6.184,13.809 -13.828,13.809 -7.622,0 -13.809,-6.188 -13.809,-13.809 0,-7.625 6.187,-13.808 13.809,-13.808 7.644,0 13.828,6.183 13.828,13.808"
                 style="fill:#f8a40d;fill-opacity:1;fill-rule:nonzero;stroke:none"
                 id="path1119" />
            </g>
          </g>
        </g>
      </g>
      <g
         id="g1121">
        <g
           id="g1123">
          <g
             id="g1125"
             clip-path="url(#clipPath1129)">
            <g
               id="g1131">
              <path
                 d="m 269.516,110.121 c -0.551,1.242 -1.672,4.426 -5.883,10.875 -6.969,10.699 -15.375,22.18 -25.539,30.09 -7.875,6.113 -17.754,9.687 -27.727,9.828 -0.441,0 -1.187,0 -2.183,-0.035 -10.524,-0.41 -20.618,-5.152 -29.59,-10.379 -3.043,-1.777 -5.938,-3.785 -8.871,-5.723 -1.953,-1.297 -4.852,-3.148 -4.035,-5.937 0.5,-1.688 2.027,-3.41 2.792,-5.012 3.836,-7.906 3.641,-17.398 -2.168,-24.293 -0.945,-1.121 -2.097,-2.402 -1.832,-3.859 0.426,-2.434 5.153,-3.75 7.18,-4.531 3.024,-1.153 6.113,-2.079 9.223,-2.95 5.387,-1.492 10.824,-2.738 16.281,-3.91 0,0 17.238,-3.695 41,-5.082 7.324,0 14.574,0.051 21.684,2.149 4.211,1.246 9.328,2.988 11.285,7.378 1.687,3.801 -0.055,7.852 -1.617,11.391"
                 style="fill:#fbdb53;fill-opacity:1;fill-rule:nonzero;stroke:none"
                 id="path1133" />
            </g>
          </g>
        </g>
      </g>
      <g
         id="g1135">
        <g
           id="g1137">
          <g
             id="g1139"
             clip-path="url(#clipPath1143)">
            <g
               id="g1145">
              <path
                 d="m 269.512,110.125 c -0.547,1.234 -1.664,4.422 -5.875,10.871 -6.969,10.695 -15.379,22.176 -25.543,30.086 -7.875,6.117 -17.754,9.691 -27.723,9.836 -0.445,0 -1.187,0 -2.191,-0.039 -10.516,-0.41 -20.61,-5.156 -29.582,-10.379 -3.047,-1.781 -5.942,-3.789 -8.879,-5.723 -1.953,-1.297 -4.844,-3.144 -4.031,-5.937 0.503,-1.684 2.027,-3.414 2.789,-5.008 3.839,-7.91 3.644,-17.402 -2.168,-24.297 -0.942,-1.121 -2.098,-2.402 -1.829,-3.863 0.43,-2.426 5.149,-3.742 7.184,-4.531 3.02,-1.157 6.109,-2.079 9.223,-2.946 5.383,-1.496 10.82,-2.742 16.273,-3.914 0,0 17.242,-3.691 41.004,-5.078 7.328,0 14.574,0.055 21.684,2.149 4.211,1.246 9.332,2.984 11.285,7.378 1.683,3.801 -0.055,7.856 -1.621,11.395 m -183.285,4.461 c -15.922,0 -28.829,-12.926 -28.829,-28.848 0,-15.945 12.907,-28.851 28.829,-28.851 15.945,0 28.851,12.906 28.851,28.851 0,15.922 -12.906,28.848 -28.851,28.848 M 581.148,89.453 c -0.941,-11.16 -7.906,-19.82 -15.441,-24.082 -6.48,-3.683 -12.312,-3.449 -21.469,-3.164 -0.597,0 -1.207,0.02 -1.824,0.035 0,0 -21.121,0.727 -46.852,-1.207 -6.519,-0.504 -13.058,-1.172 -19.585,-2.043 -2.625,-0.34 -5.262,-0.715 -7.875,-1.121 -6.594,-1.012 -13.094,-2.219 -19.497,-3.625 C 444,53.25 439.297,52.203 433,50.367 c -9.098,-2.64 -18.762,-6.449 -27.457,-9.484 -4.938,-1.961 -7.246,-3.008 -9.703,-3.754 -0.992,-0.305 -2.004,-0.57 -3.231,-0.797 -0.484,-0.09 -0.941,-0.18 -1.39,-0.25 -0.016,0 -0.051,0 -0.071,-0.016 -0.464,0 -0.886,-0.074 -1.261,-0.183 -4.953,-0.668 -8.977,-0.301 -13.614,0 -8.867,0.574 -17.769,0.359 -26.656,0.621 -8.785,0.269 -15.305,0.215 -28.347,0.18 -31.938,-0.075 -54.633,-0.961 -94.141,-1.246 -29.539,-0.223 -50.754,0.019 -68.371,1.351 -2.348,0.18 -12.102,0.941 -23.367,1.871 -12.371,1.012 -18.739,1.524 -26.559,2.278 -10.977,1.027 -17.309,1.628 -25.855,2.714 -7.454,0.938 -7.856,1.153 -31.758,4.996 C 33.16,51.539 26.738,52.48 17.363,56.02 4.207,61 2.359,64.699 1.562,66.184 c -4.199,7.945 0.887,17.671 5.563,24.246 2.363,3.324 6.539,9.718 32.027,27.031 10.024,6.824 16.508,11.23 26.282,16.684 12.902,7.218 15.714,7.417 24.511,13.39 8.688,5.895 11.321,9.324 21.094,17.699 0,0 13.649,11.68 28.363,21.325 38.282,25.113 79.711,27.011 89.84,27.226 10.328,0.215 18.801,-0.672 20.879,-0.902 3.242,-0.36 18.594,-2.153 38.129,-9.082 3.977,-1.406 7.656,-2.867 10.996,-4.281 0,0 10.328,-4.786 10.383,-4.786 3.34,-1.691 5.937,-3.105 7.656,-4.082 14.168,-8 19.356,-13.57 27.531,-20.726 3.825,-3.34 8.321,-7.039 14.664,-11.5 23.418,-16.406 44.305,-23.528 48.856,-25.043 13.309,-4.406 24.648,-5.938 47.344,-8.973 3.008,-0.414 5.828,-0.781 8.5,-1.137 9.984,-1.328 20.008,-2.687 30.074,-3.117 11.914,-0.511 24.148,0.985 36.051,1.629 4.379,0.235 8.75,0.707 13.136,0.664 0.567,-0.008 1.121,-0.027 1.684,-0.047 3.781,-0.187 7.516,-0.84 11.227,-1.582 3.589,-0.797 7.207,-1.711 10.531,-3.343 0.179,-0.086 0.367,-0.18 0.535,-0.266 0.531,-0.27 1.023,-0.547 1.48,-0.836 0.293,-0.18 0.582,-0.375 0.868,-0.582 0.046,-0.023 0.089,-0.051 0.125,-0.09 0.222,-0.148 0.449,-0.32 0.671,-0.492 0.395,-0.305 0.754,-0.609 1.102,-0.914 6.664,-5.902 10.309,-15.43 9.484,-24.844"
                 style="fill:#f8a40d;fill-opacity:1;fill-rule:nonzero;stroke:none"
                 id="path1147" />
            </g>
          </g>
        </g>
      </g>
      <g
         id="g1149">
        <g
           id="g1151">
          <g
             id="g1153"
             clip-path="url(#clipPath1157)">
            <g
               id="g1159">
              <path
                 d="m 673.625,165.199 c -5.141,3.395 -10.453,3.555 -12.941,3.59 -11.411,0.199 -23.711,-6.519 -41.301,-15.711 -11.945,-6.258 -21.988,-11.355 -34.16,-17.023 -6.188,-2.887 -10.325,-4.696 -15.145,-6.547 -9.957,-3.852 -18.683,-5.582 -24.949,-7.106 3.777,-0.187 7.512,-0.84 11.219,-1.582 3.593,-0.797 7.211,-1.711 10.535,-3.343 0.179,-0.09 0.367,-0.18 0.535,-0.266 0.531,-0.27 1.023,-0.547 1.48,-0.836 0.305,-0.187 0.59,-0.383 0.868,-0.582 0.043,-0.023 0.089,-0.051 0.125,-0.09 0.234,-0.16 0.457,-0.328 0.671,-0.492 0.395,-0.305 0.754,-0.609 1.102,-0.914 6.664,-5.899 10.309,-15.43 9.484,-24.844 -0.937,-11.16 -7.906,-19.82 -15.441,-24.082 -6.484,-3.683 -12.312,-3.449 -21.465,-3.164 v -0.016 c 14.231,-3.304 27.227,-8.902 40.641,-14.625 12.055,-5.125 23.941,-10.562 35.906,-15.855 11.106,-4.926 22.723,-10.828 34.637,-13.434 5.308,-1.156 10.98,-1.281 16.066,0.618 14.59,5.437 10.453,23.054 9.594,34.902 -1.524,21.613 -2.133,44.344 0.34,65.793 1.636,14.297 6.914,35.918 -7.801,45.609"
                 style="fill:#fbdb53;fill-opacity:1;fill-rule:nonzero;stroke:none"
                 id="path1161" />
            </g>
          </g>
        </g>
      </g>
      <g
         id="g1163">
        <g
           id="g1165">
          <g
             id="g1167"
             clip-path="url(#clipPath1171)">
            <g
               id="g1173">
              <path
                 d="m 349.562,231.789 c -6.558,4.887 -14.628,1.566 -21.062,-1.828 -6.594,-3.465 -12.352,-8.336 -17.398,-13.773 -3.395,-3.645 -7.856,-9.137 -11.856,-16.672 l 10.363,-4.797 c 0,0 0,0.015 0.016,0.015 0.68,0.891 1.707,2.098 3.184,3.305 1.937,1.566 4.601,3.078 8.992,4.035 4.836,1.051 9.633,-0.32 14.414,0.996 6.879,1.868 13.488,7.731 15.496,14.68 1.156,3.965 1.547,11.285 -2.149,14.039"
                 style="fill:#fbdb53;fill-opacity:1;fill-rule:nonzero;stroke:none"
                 id="path1175" />
            </g>
          </g>
        </g>
      </g>
      <g
         id="g1177">
        <g
           id="g1179">
          <g
             id="g1181"
             clip-path="url(#clipPath1185)">
            <g
               id="g1187">
              <path
                 d="m 504.82,30.641 c -1.011,4.765 -2.754,9.437 -5.382,13.562 -1.336,2.063 -2.918,4 -4.747,5.652 -2.007,1.793 -4.496,3.004 -6.914,4.192 -3.75,1.851 -7.73,3.574 -11.695,4.891 l -0.105,0.05 c -2.629,-0.336 -5.262,-0.711 -7.875,-1.117 -6.59,-1.016 -13.098,-2.223 -19.493,-3.625 -4.605,-0.996 -9.316,-2.047 -15.605,-3.875 -9.102,-2.648 -18.77,-6.453 -27.461,-9.492 -4.938,-1.953 -7.25,-3.004 -9.703,-3.75 -0.996,-0.301 -2.008,-0.57 -3.235,-0.801 -0.48,-0.086 -0.941,-0.176 -1.386,-0.246 1.937,0.086 4.355,-0.465 5.957,-0.766 11.09,-1.988 19.922,-10.023 29.57,-15.265 10.293,-5.598 20.848,-10.965 31.973,-14.699 8.48,-2.86 17.363,-5.243 26.359,-5.348 1.848,-0.02 3.711,0.051 5.563,0.23 3.359,0.301 6.664,0.692 9.523,2.649 3.875,2.664 5.633,7.055 6.024,11.605 0.445,5.313 -0.266,10.965 -1.368,16.153"
                 style="fill:#fbdb53;fill-opacity:1;fill-rule:nonzero;stroke:none"
                 id="path1189" />
            </g>
          </g>
        </g>
      </g>
      <g
         id="g1191">
        <g
           id="g1193">
          <g
             id="g1195"
             clip-path="url(#clipPath1199)">
            <g
               id="g1201">
              <path
                 d="m 484.473,151.992 c -17.008,7.289 -34.676,14.379 -50.438,24.188 -7.254,4.515 -13.613,9.738 -20.101,15.215 -4.782,4.035 -8.832,8.191 -15.125,9.878 -7.961,2.133 -15.871,-0.07 -22.856,-4.05 -5.668,-3.215 -10.734,-7.395 -15.656,-11.621 -5.547,-4.782 -10.805,-10.024 -15.481,-15.676 3.821,-3.344 8.317,-7.039 14.664,-11.5 23.422,-16.403 44.305,-23.531 48.856,-25.043 13.312,-4.406 24.648,-5.934 47.344,-8.973 3.004,-0.41 5.832,-0.781 8.496,-1.137 7.25,5.293 16.262,8.442 24.402,12.207 2.949,1.352 6.133,2.098 6.895,5.793 1.316,6.489 -6.414,8.747 -11,10.719"
                 style="fill:#fbdb53;fill-opacity:1;fill-rule:nonzero;stroke:none"
                 id="path1203" />
            </g>
          </g>
        </g>
      </g>
    </g>
  </g>
</svg>
